HIERARCHY
ROOT hip
{
  OFFSET 0 0 0
  CHANNELS 6 Xposition Yposition Zposition Zrotation Yrotation Xrotation
  JOINT abdomen
  {
    OFFSET 0 20.6881 -0.73152
    CHANNELS 3 Zrotation Xrotation Yrotation
    JOINT chest
    {
      OFFSET 0 11.7043 -0.48768
      CHANNELS 3 Zrotation Xrotation Yrotation
      JOINT neck
      {
        OFFSET 0 22.1894 -2.19456
        CHANNELS 3 Zrotation Xrotation Yrotation
        JOINT head
        {
          OFFSET -0.24384 7.07133 1.2192
          CHANNELS 3 Zrotation Xrotation Yrotation
          JOINT leftEye
          {
            OFFSET 4.14528 8.04674 8.04672
            CHANNELS 3 Zrotation Xrotation Yrotation
            End Site
            {
              OFFSET 1 0 0
            }
          }
          JOINT rightEye
          {
            OFFSET -3.6576 8.04674 8.04672
            CHANNELS 3 Zrotation Xrotation Yrotation
            End Site
            {
              OFFSET 1 0 0
            }
          }
        }
      }
      JOINT rCollar
      {
        OFFSET -2.68224 19.2634 -4.8768
        CHANNELS 3 Zrotation Xrotation Yrotation
        JOINT rShldr
        {
          OFFSET -8.77824 -1.95073 1.46304
          CHANNELS 3 Zrotation Xrotation Yrotation
          JOINT rForeArm
          {
            OFFSET -28.1742 -1.7115 0.48768
            CHANNELS 3 Zrotation Xrotation Yrotation
            JOINT rHand
            {
              OFFSET -22.5879 0.773209 7.07136
              CHANNELS 3 Zrotation Xrotation Yrotation
              JOINT rThumb1
              {
                OFFSET -1.2192 -0.487915 3.41376
                CHANNELS 3 Zrotation Xrotation Yrotation
                JOINT rThumb2
                {
                  OFFSET -3.37035 -0.52449 3.41376
                  CHANNELS 3 Zrotation Xrotation Yrotation
                  End Site
                  {
                    OFFSET -1.78271 -1.18214 1.43049
                  }
                }
              }
              JOINT rIndex1
              {
                OFFSET -7.75947 0.938293 5.60832
                CHANNELS 3 Zrotation Xrotation Yrotation
                JOINT rIndex2
                {
                  OFFSET -2.54057 -0.884171 1.56538
                  CHANNELS 3 Zrotation Xrotation Yrotation
                  End Site
                  {
                    OFFSET -1.62519 -0.234802 1.16502
                  }
                }
              }
              JOINT rMid1
              {
                OFFSET -8.24714 1.18213 3.41376
                CHANNELS 3 Zrotation Xrotation Yrotation
                JOINT rMid2
                {
                  OFFSET -3.10165 -0.590103 1.0647
                  CHANNELS 3 Zrotation Xrotation Yrotation
                  End Site
                  {
                    OFFSET -2.48547 -0.328903 0.83742
                  }
                }
              }
              JOINT rRing1
              {
                OFFSET -8.82822 0.546677 1.51678
                CHANNELS 3 Zrotation Xrotation Yrotation
                JOINT rRing2
                {
                  OFFSET -2.60934 -0.819778 -0.0198488
                  CHANNELS 3 Zrotation Xrotation Yrotation
                  End Site
                  {
                    OFFSET -2.33842 -0.294052 0.168128
                  }
                }
              }
              JOINT rPinky1
              {
                OFFSET -8.27202 -0.0477905 -0.4584
                CHANNELS 3 Zrotation Xrotation Yrotation
                JOINT rPinky2
                {
                  OFFSET -1.82734 -0.647385 -0.700984
                  CHANNELS 3 Zrotation Xrotation Yrotation
                  End Site
                  {
                    OFFSET -1.69225 -0.51767 -0.607171
                  }
                }
              }
            }
          }
        }
      }
      JOINT lCollar
      {
        OFFSET 2.68224 19.2634 -4.8768
        CHANNELS 3 Zrotation Xrotation Yrotation
        JOINT lShldr
        {
          OFFSET 8.77824 -1.95073 1.46304
          CHANNELS 3 Zrotation Xrotation Yrotation
          JOINT lForeArm
          {
            OFFSET 28.1742 -1.7115 0.48768
            CHANNELS 3 Zrotation Xrotation Yrotation
            JOINT lHand
            {
              OFFSET 22.5879 0.773209 7.07136
              CHANNELS 3 Zrotation Xrotation Yrotation
              JOINT lThumb1
              {
                OFFSET 1.2192 -0.487915 3.41376
                CHANNELS 3 Zrotation Xrotation Yrotation
                JOINT lThumb2
                {
                  OFFSET 3.37035 -0.52449 3.41376
                  CHANNELS 3 Zrotation Xrotation Yrotation
                  End Site
                  {
                    OFFSET 1.78271 -1.18214 1.43049
                  }
                }
              }
              JOINT lIndex1
              {
                OFFSET 7.75947 0.938293 5.60832
                CHANNELS 3 Zrotation Xrotation Yrotation
                JOINT lIndex2
                {
                  OFFSET 2.54057 -0.884171 1.56538
                  CHANNELS 3 Zrotation Xrotation Yrotation
                  End Site
                  {
                    OFFSET 1.62519 -0.234802 1.16502
                  }
                }
              }
              JOINT lMid1
              {
                OFFSET 8.24714 1.18213 3.41376
                CHANNELS 3 Zrotation Xrotation Yrotation
                JOINT lMid2
                {
                  OFFSET 3.10165 -0.590103 1.0647
                  CHANNELS 3 Zrotation Xrotation Yrotation
                  End Site
                  {
                    OFFSET 2.48547 -0.328903 0.83742
                  }
                }
              }
              JOINT lRing1
              {
                OFFSET 8.82822 0.546677 1.51678
                CHANNELS 3 Zrotation Xrotation Yrotation
                JOINT lRing2
                {
                  OFFSET 2.60934 -0.819778 -0.0198488
                  CHANNELS 3 Zrotation Xrotation Yrotation
                  End Site
                  {
                    OFFSET 2.33842 -0.294052 0.168128
                  }
                }
              }
              JOINT lPinky1
              {
                OFFSET 8.27202 -0.0477905 -0.4584
                CHANNELS 3 Zrotation Xrotation Yrotation
                JOINT lPinky2
                {
                  OFFSET 1.82734 -0.647385 -0.700984
                  CHANNELS 3 Zrotation Xrotation Yrotation
                  End Site
                  {
                    OFFSET 1.69225 -0.51767 -0.607171
                  }
                }
              }
            }
          }
        }
      }
    }
  }
  JOINT rButtock
  {
    OFFSET -8.77824 4.35084 1.2192
    CHANNELS 3 Zrotation Xrotation Yrotation
    JOINT rThigh
    {
      OFFSET 0 -1.70687 -2.19456
      CHANNELS 3 Zrotation Xrotation Yrotation
      JOINT rShin
      {
        OFFSET 0 -36.8199 0.73152
        CHANNELS 3 Zrotation Xrotation Yrotation
        JOINT rFoot
        {
          OFFSET 0.73152 -45.1104 -5.12064
          CHANNELS 3 Zrotation Xrotation Yrotation
          End Site
          {
            OFFSET -1.1221 -3.69964 12.103
          }
        }
      }
    }
  }
  JOINT lButtock
  {
    OFFSET 8.77824 4.35084 1.2192
    CHANNELS 3 Zrotation Xrotation Yrotation
    JOINT lThigh
    {
      OFFSET 0 -1.70687 -2.19456
      CHANNELS 3 Zrotation Xrotation Yrotation
      JOINT lShin
      {
        OFFSET 0 -36.8199 0.73152
        CHANNELS 3 Zrotation Xrotation Yrotation
        JOINT lFoot
        {
          OFFSET -0.73152 -45.1104 -5.12064
          CHANNELS 3 Zrotation Xrotation Yrotation
          End Site
          {
            OFFSET 1.1221 -3.69964 12.103
          }
        }
      }
    }
  }
}
MOTION
Frames:	4
Frame Time:	0.00833333
26.8631 84.1874 -42.5415 -4.261 12.8088 9.5263 4.76985 5.57185 6.92961 2.48896 2.96211 1.98723 1.22072 4.86772 -7.24467 5.8212 18.8526 -14.7065 -0.0 0.0 0.0 -0.0 0.0 0.0 -1.46162e-13 9.54199e-14 -1.14401e-13 41.6947 50.0972 33.4835 -17.4096 -55.1063 120.185 -0.520913 -20.0694 -2.94318 -1.10074e-09 -1.25961e-09 3.23488e-10 -1.90549e-09 -2.16178e-09 5.40377e-10 -1.10074e-09 -1.25962e-09 3.23488e-10 7.73091 5.47488 0.417314 -1.10074e-09 -1.25962e-09 3.23491e-10 2.90554 0.965183 0.102902 -1.10074e-09 -1.25962e-09 3.23491e-10 10.2786 0.731801 0.0259123 -1.10075e-09 -1.25962e-09 3.23494e-10 2.22167 -0.733487 -0.20892 -1.46459e-13 9.54112e-14 -1.1455e-13 -105.452 42.84 42.9776 21.5161 -15.0471 -42.501 0.100338 -8.99783 1.27517 6.23467e-10 -3.43818e-11 1.00229e-10 1.07817e-09 -6.17218e-11 1.81614e-10 6.23462e-10 -3.43794e-11 1.00245e-10 -7.73091 5.47488 -0.417314 6.23467e-10 -3.43815e-11 1.00226e-10 -2.90554 0.965183 -0.102902 6.23455e-10 -3.43812e-11 1.00235e-10 -10.2786 0.731801 -0.0259123 6.23466e-10 -3.4381e-11 1.00232e-10 -2.22167 -0.733487 0.20892 -2.03217e-16 0.0 -3.88251e-19 5.62328 -30.8624 -4.96684 -0.405886 42.9691 0.699113 0.162669 -0.0268543 8.64141 2.03217e-16 0.0 3.88251e-19 5.81142 -44.2492 2.92905 1.55448 65.7138 -1.8903 1.12648 12.4037 -5.41263
26.6874 84.4571 -42.1564 -5.0487 13.3572 9.3367 5.68368 5.63866 6.73019 2.47516 2.94978 1.94329 1.19391 4.86937 -7.29301 5.86566 18.8433 -14.7968 -0.0 0.0 0.0 -0.0 0.0 0.0 -1.51186e-13 8.38157e-14 2.26467e-14 41.802 50.0902 33.3382 -17.3411 -55.1471 120.336 -0.505903 -19.7961 -2.8996 -6.62146e-10 -1.10822e-09 5.99947e-10 -1.15348e-09 -1.91303e-09 1.02694e-09 -6.62147e-10 -1.10822e-09 5.9995e-10 7.73091 5.47488 0.417314 -6.62146e-10 -1.10822e-09 5.99949e-10 2.90554 0.965183 0.102902 -6.62143e-10 -1.10822e-09 5.9995e-10 10.2786 0.731801 0.0259123 -6.62155e-10 -1.10822e-09 5.99955e-10 2.22167 -0.733487 -0.20892 -1.51495e-13 8.38072e-14 2.25104e-14 -105.518 42.6831 43.2926 21.6472 -15.2377 -42.8407 0.107981 -9.36329 1.32775 1.01799e-09 -1.24569e-10 -5.59843e-11 1.76072e-09 -2.17429e-10 -8.5334e-11 1.01798e-09 -1.24568e-10 -5.59734e-11 -7.73091 5.47488 -0.417314 1.01799e-09 -1.24569e-10 -5.59908e-11 -2.90554 0.965183 -0.102902 1.01798e-09 -1.24569e-10 -5.59818e-11 -10.2786 0.731801 -0.0259123 1.01799e-09 -1.24569e-10 -5.5985e-11 -2.22167 -0.733487 0.20892 -2.03217e-16 0.0 -3.88251e-19 6.59351 -29.6675 -4.80242 -0.365504 41.3044 0.664709 0.119987 -0.457906 7.69762 2.03217e-16 0.0 3.88251e-19 6.42761 -46.416 2.61108 1.78186 67.7753 -2.12344 1.2894 13.973 -5.73227
26.5426 84.6593 -41.7557 -5.6936 13.9319 9.1421 6.53545 5.67936 6.43584 2.45192 2.94763 1.87183 1.16446 4.87466 -7.33681 5.92557 18.7913 -14.8793 -0.0 0.0 0.0 -0.0 0.0 0.0 -1.41092e-13 1.49108e-14 2.42188e-13 41.9046 50.0939 33.2388 -17.2736 -55.1871 120.484 -0.4887 -19.475 -2.84863 2.13675e-10 -6.44344e-10 9.58748e-10 3.51271e-10 -1.13419e-09 1.66395e-09 2.13669e-10 -6.44344e-10 9.58755e-10 7.73091 5.47488 0.417314 2.13673e-10 -6.44342e-10 9.58748e-10 2.90554 0.965183 0.102902 2.13677e-10 -6.44343e-10 9.58752e-10 10.2786 0.731801 0.0259123 2.13666e-10 -6.44343e-10 9.58758e-10 2.22167 -0.733487 -0.20892 -1.41381e-13 1.49048e-14 2.42054e-13 -105.593 42.4713 43.6809 21.8028 -15.4662 -43.2508 0.122023 -9.95792 1.4137 1.73325e-09 -2.70662e-10 -3.98446e-10 2.99842e-09 -4.68814e-10 -6.73491e-10 1.73323e-09 -2.70662e-10 -3.98443e-10 -7.73091 5.47488 -0.417314 1.73324e-09 -2.70662e-10 -3.98457e-10 -2.90554 0.965183 -0.102902 1.73323e-09 -2.70662e-10 -3.98449e-10 -10.2786 0.731801 -0.0259123 1.73325e-09 -2.70662e-10 -3.98451e-10 -2.22167 -0.733487 0.20892 -2.03217e-16 0.0 -3.88251e-19 7.45391 -28.3915 -4.7315 -0.326245 39.5339 0.629356 0.0951555 -1.32432 6.58205 2.03217e-16 0.0 3.88251e-19 6.762 -48.5658 2.08572 2.02664 69.6304 -2.37389 1.39416 14.8011 -6.09684
26.4277 84.788 -41.3382 -6.1787 14.4898 8.9436 7.2882 5.71484 6.1437 2.42415 2.94574 1.79982 1.13022 4.88007 -7.37852 5.97886 18.736 -14.956 -0.0 0.0 0.0 -0.0 0.0 0.0 -1.10284e-13 -7.17856e-14 4.27343e-13 42.0228 50.1037 33.1491 -17.2104 -55.2243 120.622 -0.47201 -19.154 -2.79795 1.09895e-09 -7.65479e-11 1.20563e-09 1.87432e-09 -1.73934e-10 2.10727e-09 1.09894e-09 -7.65467e-11 1.20564e-09 7.73091 5.47488 0.417314 1.09894e-09 -7.65432e-11 1.20563e-09 2.90554 0.965183 0.102902 1.09895e-09 -7.65436e-11 1.20563e-09 10.2786 0.731801 0.0259123 1.09894e-09 -7.65419e-11 1.20564e-09 2.22167 -0.733487 -0.20892 -1.10537e-13 -7.17885e-14 4.27204e-13 -105.649 42.2543 44.0638 21.9448 -15.6762 -43.6344 0.139396 -10.6115 1.50868 2.31229e-09 -3.69438e-10 -7.34903e-10 4.00083e-09 -6.38205e-10 -1.25299e-09 2.31226e-09 -3.69439e-10 -7.34907e-10 -7.73091 5.47488 -0.417314 2.31227e-09 -3.69438e-10 -7.34918e-10 -2.90554 0.965183 -0.102902 2.31226e-09 -3.69438e-10 -7.34911e-10 -10.2786 0.731801 -0.0259123 2.31229e-09 -3.69438e-10 -7.34913e-10 -2.22167 -0.733487 0.20892 -2.03217e-16 0.0 -3.88251e-19 8.20268 -27.1194 -4.69403 -0.290561 37.7828 0.598286 0.0469195 -2.40908 5.36041 2.03217e-16 0.0 3.88251e-19 6.86853 -50.5494 1.45802 2.262 71.1357 -2.61323 1.46227 15.235 -6.42948
